<svg id="Layer_1" data-name="Layer 1" xmlns="http://www.w3.org/2000/svg" viewBox="0 0 85.04 85.04">
  <path d="M49.06,29.56c0-2.44-.51-8.53,6.45-8.6,5.37-.06,6.27,4.2,6.26,9.28,0,2.59-3.89,12.28-19.16,12.22-16.2-.07-19.34,7.23-19.34,14.2,0,2.32,1.8,7.3,6.45,7.3,7,0,6.36-7.18,6.36-7.18V28.91c0-5-.12-8-6.51-8-5,0-6.3,5.76-6.26,9.33.09,7.26,12.77,12.29,19.3,12.23s19.16,4.32,19.16,13.41c0,3.58-1.39,8.26-5.82,8.26-4,0-6.86-4.39-6.86-9.8C49.09,47.93,49,44.63,49.06,29.56Z" fill="none" stroke="#6d6e71" stroke-linecap="round" stroke-linejoin="round" stroke-width="5.67"/>
</svg>
