<svg id="Layer_1" data-name="Layer 1" xmlns="http://www.w3.org/2000/svg" viewBox="0 0 85.04 82.38">
  <g opacity="0.5">
    <circle cx="42.52" cy="41.19" r="38.98" fill="#dd7c0e"/>
  </g>
  <path d="M49.33,28.8c0-2.44-.51-8.53,6.45-8.6,5.37-.06,6.41,4.36,6.4,9.45,0,2.58-4,12.11-19.3,12.05-16.2-.07-19.35,7.23-19.35,14.2,0,2.32,1.81,7.29,6.46,7.29,7,0,6.36-7.18,6.36-7.18V28.15c0-5-.12-8-6.51-8-5,0-6.31,5.76-6.26,9.32.08,7.27,12.77,12.3,19.3,12.24s19.31,4.36,19.31,13.45c0,3.58-1.54,8.22-6,8.22-3.94,0-6.85-4.39-6.85-9.8C49.36,47.16,49.3,43.87,49.33,28.8Z" fill="none" stroke="#333" stroke-linecap="round" stroke-linejoin="round" stroke-width="4"/>
</svg>
